<?xml version="1.0" encoding="UTF-8" ?>
<!DOCTYPE svg PUBLIC "-//W3C//DTD SVG 1.1//EN" "http://www.w3.org/Graphics/SVG/1.1/DTD/svg11.dtd">
<svg width="536pt" height="376pt" viewBox="0 0 536 376" version="1.1" xmlns="http://www.w3.org/2000/svg">
<g id="#ffffffff">
<path fill="#ffffff" opacity="1.00" d=" M 0.00 0.00 L 536.00 0.00 L 536.00 376.00 L 0.00 376.00 L 0.00 0.00 M 55.87 48.76 C 55.01 49.64 54.13 50.51 53.24 51.36 C 48.79 56.47 46.76 63.22 46.77 69.92 C 46.80 150.68 46.76 231.44 46.79 312.21 C 46.77 318.82 49.48 325.17 53.73 330.16 C 55.46 331.75 57.16 333.37 58.95 334.90 C 61.21 336.12 63.57 337.14 65.97 338.05 C 68.62 338.54 71.24 339.28 73.96 339.22 C 173.06 339.22 272.17 339.20 371.27 339.25 C 372.25 337.29 373.29 335.35 374.57 333.57 C 374.61 333.43 374.67 333.15 374.70 333.01 C 376.85 329.64 378.20 325.82 380.56 322.57 C 380.59 322.43 380.67 322.15 380.71 322.01 C 382.85 318.64 384.20 314.82 386.55 311.57 C 386.59 311.43 386.67 311.15 386.71 311.01 C 388.84 307.63 390.21 303.83 392.54 300.58 C 392.59 300.44 392.67 300.15 392.72 300.01 C 394.86 296.63 396.20 292.80 398.57 289.57 C 398.61 289.43 398.67 289.15 398.70 289.01 C 400.85 285.64 402.20 281.81 404.56 278.57 C 404.60 278.43 404.67 278.15 404.71 278.01 C 406.85 274.64 408.20 270.81 410.56 267.57 C 410.59 267.43 410.67 267.15 410.71 267.01 C 412.85 263.64 414.20 259.81 416.56 256.57 C 416.60 256.43 416.67 256.15 416.70 256.01 C 418.85 252.64 420.20 248.82 422.56 245.58 C 422.59 245.43 422.66 245.14 422.70 245.00 C 424.36 242.34 425.64 239.47 427.21 236.76 C 427.31 236.59 427.53 236.25 427.64 236.07 C 429.72 232.76 431.25 229.15 433.19 225.76 C 433.30 225.59 433.53 225.25 433.64 225.08 C 435.72 221.76 437.25 218.15 439.19 214.76 C 439.31 214.59 439.54 214.25 439.65 214.08 C 441.72 210.76 443.25 207.14 445.20 203.76 C 445.31 203.59 445.53 203.24 445.64 203.07 C 447.68 199.83 449.22 196.32 451.00 192.94 C 451.47 192.34 452.42 191.14 452.89 190.54 C 426.08 140.89 398.85 91.46 372.14 41.76 C 273.06 41.80 173.99 41.78 74.92 41.77 C 67.97 41.70 61.06 44.10 55.87 48.76 M 391.72 41.79 C 395.33 49.10 399.43 56.16 403.34 63.31 C 426.49 105.78 449.92 148.09 473.01 190.59 C 472.39 191.40 471.78 192.21 471.17 193.02 C 469.17 196.44 467.79 200.21 465.44 203.42 C 465.40 203.56 465.33 203.85 465.29 203.99 C 463.15 207.36 461.79 211.18 459.44 214.43 C 459.41 214.57 459.34 214.85 459.30 214.99 C 457.46 217.94 456.07 221.13 454.39 224.16 C 452.00 227.34 450.82 231.23 448.45 234.42 C 448.41 234.57 448.33 234.85 448.29 235.00 C 446.15 238.36 444.79 242.17 442.45 245.42 C 442.41 245.56 442.33 245.85 442.29 245.99 C 440.14 249.36 438.79 253.19 436.44 256.43 C 436.41 256.57 436.34 256.86 436.31 257.00 C 434.64 259.65 433.36 262.52 431.80 265.24 C 431.69 265.40 431.46 265.74 431.35 265.91 C 429.17 269.30 427.81 273.16 425.44 276.43 C 425.40 276.57 425.33 276.85 425.29 276.99 C 423.14 280.36 421.80 284.19 419.44 287.43 C 419.41 287.57 419.34 287.86 419.31 288.00 C 417.63 290.65 416.36 293.51 414.81 296.23 C 414.69 296.40 414.46 296.74 414.34 296.91 C 412.19 300.31 410.81 304.15 408.45 307.42 C 408.41 307.56 408.33 307.85 408.29 307.99 C 406.15 311.37 404.79 315.18 402.44 318.43 C 402.41 318.57 402.34 318.86 402.31 319.00 C 400.64 321.65 399.36 324.51 397.80 327.23 C 397.69 327.40 397.46 327.75 397.35 327.93 C 395.26 331.29 393.61 334.90 391.86 338.45 C 401.67 337.98 411.68 339.83 421.28 337.09 C 427.15 334.73 432.56 331.47 437.22 327.17 C 438.04 326.04 438.86 324.91 439.67 323.78 C 440.38 322.81 441.06 321.83 441.75 320.85 C 443.94 317.56 445.21 313.75 447.56 310.57 C 447.60 310.43 447.66 310.15 447.70 310.01 C 449.86 306.65 451.20 302.82 453.55 299.58 C 453.59 299.44 453.67 299.15 453.71 299.01 C 455.85 295.63 457.20 291.81 459.57 288.57 C 459.60 288.43 459.66 288.14 459.68 288.00 C 461.36 285.35 462.64 282.48 464.20 279.77 C 464.31 279.59 464.54 279.25 464.65 279.07 C 466.72 275.76 468.25 272.15 470.19 268.76 C 470.31 268.59 470.54 268.25 470.66 268.08 C 472.83 264.69 474.19 260.84 476.56 257.57 C 476.60 257.43 476.67 257.15 476.70 257.01 C 478.85 253.64 480.20 249.81 482.56 246.57 C 482.60 246.43 482.67 246.15 482.71 246.01 C 484.85 242.64 486.20 238.81 488.56 235.57 C 488.59 235.43 488.66 235.14 488.70 235.00 C 490.35 232.35 491.64 229.49 493.19 226.77 C 493.31 226.60 493.54 226.25 493.65 226.08 C 495.71 222.76 497.25 219.16 499.19 215.77 C 499.31 215.60 499.54 215.25 499.66 215.08 C 501.83 211.69 503.19 207.84 505.56 204.57 C 505.60 204.43 505.67 204.15 505.71 204.01 C 507.87 200.63 509.19 196.77 511.61 193.55 C 511.59 193.39 511.57 193.06 511.55 192.90 C 512.22 191.99 512.89 191.08 513.54 190.16 C 512.43 188.38 511.31 186.61 510.27 184.79 C 487.75 143.09 464.57 101.74 442.20 59.95 C 441.48 58.84 440.75 57.74 440.01 56.65 L 439.49 56.53 L 439.50 55.78 C 437.42 53.70 435.23 51.74 433.08 49.74 C 432.32 49.26 431.57 48.78 430.83 48.30 C 425.27 44.62 418.86 41.96 412.13 41.79 C 405.33 41.75 398.52 41.79 391.72 41.79 Z" />
<path fill="#ffffff" opacity="1.00" d=" M 92.38 124.18 C 100.31 124.27 108.24 124.19 116.17 124.22 C 128.28 144.30 140.74 164.17 152.93 184.21 C 155.74 188.46 158.20 192.92 160.93 197.22 C 165.63 204.96 170.65 212.53 174.99 220.48 C 175.47 220.64 176.44 220.97 176.93 221.13 C 176.84 188.82 176.94 156.52 176.88 124.22 C 184.13 124.20 191.37 124.27 198.62 124.18 C 198.51 168.39 198.51 212.61 198.62 256.82 C 190.47 256.73 182.33 256.79 174.19 256.79 C 161.75 235.64 148.65 214.88 136.08 193.80 C 131.23 186.25 126.84 178.42 122.09 170.81 C 120.03 167.40 117.72 164.13 116.01 160.53 C 115.53 160.36 114.56 160.04 114.07 159.87 C 114.15 192.17 114.07 224.48 114.12 256.78 C 106.87 256.80 99.63 256.73 92.38 256.82 C 92.49 212.61 92.49 168.39 92.38 124.18 Z" />
<path fill="#ffffff" opacity="1.00" d=" M 220.88 124.22 C 228.38 124.21 235.87 124.24 243.37 124.20 C 243.31 168.40 243.30 212.60 243.37 256.80 C 235.88 256.76 228.38 256.79 220.88 256.78 C 220.91 212.59 220.90 168.40 220.88 124.22 Z" />
<path fill="#ffffff" opacity="1.00" d=" M 266.88 124.22 C 274.30 124.22 281.71 124.22 289.12 124.22 C 289.12 141.76 289.04 159.30 289.16 176.84 C 309.05 176.93 328.95 176.93 348.84 176.84 C 348.96 159.30 348.88 141.76 348.88 124.22 C 356.54 124.18 364.20 124.31 371.86 124.14 C 371.78 168.38 371.63 212.62 371.86 256.86 C 364.37 256.73 356.87 256.62 349.38 256.82 C 349.54 236.73 349.39 216.64 349.45 196.55 C 329.55 196.55 309.64 196.58 289.73 196.53 C 289.89 216.64 289.65 236.75 289.85 256.86 C 282.20 256.69 274.54 256.82 266.88 256.78 C 266.91 212.59 266.90 168.41 266.88 124.22 Z" />
</g>
<g id="#040404ff">
<path fill="#040404" opacity="1.00" d=" M 55.87 48.76 C 61.06 44.10 67.97 41.70 74.92 41.77 C 173.99 41.78 273.06 41.80 372.14 41.76 C 398.85 91.46 426.08 140.89 452.89 190.54 C 452.42 191.14 451.47 192.34 451.00 192.94 C 449.22 196.32 447.68 199.83 445.64 203.07 C 445.53 203.24 445.31 203.59 445.20 203.76 C 443.25 207.14 441.72 210.76 439.65 214.08 C 439.54 214.25 439.31 214.59 439.19 214.76 C 437.25 218.15 435.72 221.76 433.64 225.08 C 433.53 225.25 433.30 225.59 433.19 225.76 C 431.25 229.15 429.72 232.76 427.64 236.07 C 427.53 236.25 427.31 236.59 427.21 236.76 C 425.64 239.47 424.36 242.34 422.70 245.00 C 422.66 245.14 422.59 245.43 422.56 245.58 C 420.20 248.82 418.85 252.64 416.70 256.01 C 416.67 256.15 416.60 256.43 416.56 256.57 C 414.20 259.81 412.85 263.64 410.71 267.01 C 410.67 267.15 410.59 267.43 410.56 267.57 C 408.20 270.81 406.85 274.64 404.71 278.01 C 404.67 278.15 404.60 278.43 404.56 278.57 C 402.20 281.81 400.85 285.64 398.70 289.01 C 398.67 289.15 398.61 289.43 398.57 289.57 C 396.20 292.80 394.86 296.63 392.72 300.01 C 392.67 300.15 392.59 300.44 392.54 300.58 C 390.21 303.83 388.84 307.63 386.71 311.01 C 386.67 311.15 386.59 311.43 386.55 311.57 C 384.20 314.82 382.85 318.64 380.71 322.01 C 380.67 322.15 380.59 322.43 380.56 322.57 C 378.20 325.82 376.85 329.64 374.70 333.01 C 374.67 333.15 374.61 333.43 374.57 333.57 C 373.29 335.35 372.25 337.29 371.27 339.25 C 272.17 339.20 173.06 339.22 73.96 339.22 C 71.24 339.28 68.62 338.54 65.97 338.05 C 63.57 337.14 61.21 336.12 58.95 334.90 C 57.16 333.37 55.46 331.75 53.73 330.16 C 49.48 325.17 46.77 318.82 46.79 312.21 C 46.76 231.44 46.80 150.68 46.77 69.92 C 46.76 63.22 48.79 56.47 53.24 51.36 C 54.13 50.51 55.01 49.64 55.87 48.76 M 92.38 124.18 C 92.49 168.39 92.49 212.61 92.38 256.82 C 99.63 256.73 106.87 256.80 114.12 256.78 C 114.07 224.48 114.15 192.17 114.07 159.87 C 114.56 160.04 115.53 160.36 116.01 160.53 C 117.72 164.13 120.03 167.40 122.09 170.81 C 126.84 178.42 131.23 186.25 136.08 193.80 C 148.65 214.88 161.75 235.64 174.19 256.79 C 182.33 256.79 190.47 256.73 198.62 256.82 C 198.51 212.61 198.51 168.39 198.62 124.18 C 191.37 124.27 184.13 124.20 176.88 124.22 C 176.94 156.52 176.84 188.82 176.93 221.13 C 176.44 220.97 175.47 220.64 174.99 220.48 C 170.65 212.53 165.63 204.96 160.93 197.22 C 158.20 192.92 155.74 188.46 152.93 184.21 C 140.74 164.17 128.28 144.30 116.17 124.22 C 108.24 124.19 100.31 124.27 92.38 124.18 M 220.88 124.22 C 220.90 168.40 220.91 212.59 220.88 256.78 C 228.38 256.79 235.88 256.76 243.37 256.80 C 243.30 212.60 243.31 168.40 243.37 124.20 C 235.87 124.24 228.38 124.21 220.88 124.22 M 266.88 124.22 C 266.90 168.41 266.91 212.59 266.88 256.78 C 274.54 256.82 282.20 256.69 289.85 256.86 C 289.65 236.75 289.89 216.64 289.73 196.53 C 309.64 196.58 329.55 196.55 349.45 196.55 C 349.39 216.64 349.54 236.73 349.38 256.82 C 356.87 256.62 364.37 256.73 371.86 256.86 C 371.63 212.62 371.78 168.38 371.86 124.14 C 364.20 124.31 356.54 124.18 348.88 124.22 C 348.88 141.76 348.96 159.30 348.84 176.84 C 328.95 176.93 309.05 176.93 289.16 176.84 C 289.04 159.30 289.12 141.76 289.12 124.22 C 281.71 124.22 274.30 124.22 266.88 124.22 Z" />
<path fill="#040404" opacity="1.00" d=" M 391.72 41.79 C 398.52 41.79 405.33 41.75 412.13 41.79 C 418.86 41.96 425.27 44.62 430.83 48.30 C 431.57 48.78 432.32 49.26 433.08 49.74 C 435.23 51.74 437.42 53.70 439.50 55.78 L 439.49 56.53 L 440.01 56.65 C 440.75 57.74 441.48 58.84 442.20 59.95 C 464.57 101.74 487.75 143.09 510.27 184.79 C 511.31 186.61 512.43 188.38 513.54 190.16 C 512.89 191.08 512.22 191.99 511.55 192.90 C 511.57 193.06 511.59 193.39 511.61 193.55 C 509.19 196.77 507.87 200.63 505.71 204.01 C 505.67 204.15 505.60 204.43 505.56 204.57 C 503.19 207.84 501.83 211.69 499.66 215.08 C 499.54 215.25 499.31 215.60 499.19 215.77 C 497.25 219.16 495.71 222.76 493.65 226.08 C 493.54 226.25 493.31 226.60 493.19 226.77 C 491.64 229.49 490.35 232.35 488.70 235.00 C 488.66 235.14 488.59 235.43 488.56 235.57 C 486.20 238.81 484.85 242.64 482.71 246.01 C 482.67 246.15 482.60 246.43 482.56 246.57 C 480.20 249.81 478.85 253.64 476.70 257.01 C 476.67 257.15 476.60 257.43 476.56 257.57 C 474.19 260.84 472.83 264.69 470.66 268.08 C 470.54 268.25 470.31 268.59 470.19 268.76 C 468.25 272.15 466.72 275.76 464.65 279.07 C 464.54 279.25 464.31 279.59 464.20 279.77 C 462.64 282.48 461.36 285.35 459.68 288.00 C 459.66 288.14 459.60 288.43 459.57 288.57 C 457.20 291.81 455.85 295.63 453.71 299.01 C 453.67 299.15 453.59 299.44 453.55 299.58 C 451.20 302.82 449.86 306.65 447.70 310.01 C 447.66 310.15 447.60 310.43 447.56 310.57 C 445.21 313.75 443.94 317.56 441.75 320.85 C 441.06 321.83 440.38 322.81 439.67 323.78 C 438.86 324.91 438.04 326.04 437.22 327.17 C 432.56 331.47 427.15 334.73 421.28 337.09 C 411.68 339.83 401.67 337.98 391.86 338.45 C 393.61 334.90 395.26 331.29 397.35 327.93 C 397.46 327.75 397.69 327.40 397.80 327.23 C 399.36 324.51 400.64 321.65 402.31 319.00 C 402.34 318.86 402.41 318.57 402.44 318.43 C 404.79 315.18 406.15 311.37 408.29 307.99 C 408.33 307.85 408.41 307.56 408.45 307.42 C 410.81 304.15 412.19 300.31 414.34 296.91 C 414.46 296.74 414.69 296.40 414.81 296.23 C 416.36 293.51 417.63 290.65 419.31 288.00 C 419.34 287.86 419.41 287.57 419.44 287.43 C 421.80 284.19 423.14 280.36 425.29 276.99 C 425.33 276.85 425.40 276.57 425.44 276.43 C 427.81 273.16 429.17 269.30 431.35 265.91 C 431.46 265.74 431.69 265.40 431.80 265.24 C 433.36 262.52 434.64 259.65 436.31 257.00 C 436.34 256.86 436.41 256.57 436.44 256.43 C 438.79 253.19 440.14 249.36 442.29 245.99 C 442.33 245.85 442.41 245.56 442.45 245.42 C 444.79 242.17 446.15 238.36 448.29 235.00 C 448.33 234.85 448.41 234.57 448.45 234.42 C 450.82 231.23 452.00 227.34 454.39 224.16 C 456.07 221.13 457.46 217.94 459.30 214.99 C 459.34 214.85 459.41 214.57 459.44 214.43 C 461.79 211.18 463.15 207.36 465.29 203.99 C 465.33 203.85 465.40 203.56 465.44 203.42 C 467.79 200.21 469.17 196.44 471.17 193.02 C 471.78 192.21 472.39 191.40 473.01 190.59 C 449.92 148.09 426.49 105.78 403.34 63.31 C 399.43 56.16 395.33 49.10 391.72 41.79 Z" />
</g>
</svg>
